PathFileType	4	(X/Y/Z)	 0.16m3min.trc
DataRate	CameraRate	NumFrames	NumMarkers	Units	OrigDataRate	OrigDataStartFrame	OrigNumFrames
200	200	9	35	m	200	626	1000
Frame#	Time	C7			LSH			RSH			MAN			RASI			LASI			HIPR			HIPL			RPSI			LPSI			COX			RTHI1			RTHI2			RTHI3			RTHI4			RSHA1			RSHA2			RSHA3			RSHA4			RHEEL			RMET5			RMET1			RTOE			LTHI1			LTHI2			LTHI3			LTHI4			LSHA1			LSHA2			LSHA3			LSHA4			LHEEL			LMET5			LMET1			LTOE			
		X1	Y1	Z1	X2	Y2	Z2	X3	Y3	Z3	X4	Y4	Z4	X5	Y5	Z5	X6	Y6	Z6	X7	Y7	Z7	X8	Y8	Z8	X9	Y9	Z9	X10	Y10	Z10	X11	Y11	Z11	X12	Y12	Z12	X13	Y13	Z13	X14	Y14	Z14	X15	Y15	Z15	X16	Y16	Z16	X17	Y17	Z17	X18	Y18	Z18	X19	Y19	Z19	X20	Y20	Z20	X21	Y21	Z21	X22	Y22	Z22	X23	Y23	Z23	X24	Y24	Z24	X25	Y25	Z25	X26	Y26	Z26	X27	Y27	Z27	X28	Y28	Z28	X29	Y29	Z29	X30	Y30	Z30	X31	Y31	Z31	X32	Y32	Z32	X33	Y33	Z33	X34	Y34	Z34	X35	Y35	Z35	
626	3.1300	-0.396910	1.735914	-0.560699	-0.321730	1.734456	-0.785100	-0.323551	1.738332	-0.354310	-0.242392	1.694291	-0.565344	-0.234275	1.212025	-0.439884	-0.230118	1.210282	-0.668895	-0.299820	1.299182	-0.394814	-0.284227	1.289684	-0.715411	-0.410625	1.267028	-0.501710	-0.406482	1.268124	-0.611439	-0.415602	1.272115	-0.554180	-0.339046	0.984367	-0.353288	-0.328168	0.926982	-0.340620	-0.263993	0.937651	-0.336856	-0.267725	0.997847	-0.349072	-0.408913	0.516131	-0.334388	-0.418230	0.474505	-0.335923	-0.358196	0.468488	-0.327778	-0.353274	0.508323	-0.329272	-0.455372	0.197750	-0.394664	-0.331157	0.057834	-0.332741	-0.287151	0.061602	-0.406754	-0.267283	0.040027	-0.403497	-0.306072	0.962795	-0.759927	-0.294168	0.902722	-0.765774	-0.230244	0.909279	-0.759260	-0.233296	0.969017	-0.752792	-0.419036	0.470731	-0.761094	-0.429157	0.431746	-0.757668	-0.368299	0.421452	-0.768258	-0.366044	0.465218	-0.770524	-0.489240	0.201626	-0.707809	-0.378319	0.051636	-0.769267	-0.329559	0.051200	-0.694030	-0.307545	0.031476	-0.699656	
627	3.1350	-0.397269	1.741578	-0.560714	-0.321680	1.740890	-0.784479	-0.324200	1.744643	-0.354733	-0.242786	1.700271	-0.565092	-0.233546	1.217754	-0.439604	-0.229073	1.216038	-0.668528	-0.299082	1.304934	-0.394797	-0.283522	1.295658	-0.715165	-0.409837	1.273134	-0.501515	-0.405714	1.274135	-0.611342	-0.414615	1.278298	-0.554024	-0.339151	0.990211	-0.353496	-0.328632	0.932615	-0.340910	-0.264365	0.942836	-0.337291	-0.267645	1.003098	-0.349371	-0.409531	0.520487	-0.334545	-0.418130	0.478738	-0.336229	-0.358062	0.473537	-0.327866	-0.353676	0.513429	-0.329480	-0.452917	0.202225	-0.393417	-0.327840	0.063179	-0.331114	-0.284147	0.066239	-0.404901	-0.264176	0.044053	-0.401458	-0.305857	0.968519	-0.759490	-0.294308	0.908355	-0.765147	-0.230385	0.914508	-0.758304	-0.233094	0.974298	-0.751991	-0.418610	0.475299	-0.760743	-0.428223	0.436160	-0.757374	-0.367306	0.426652	-0.768355	-0.365597	0.470465	-0.770497	-0.485489	0.206575	-0.708908	-0.375533	0.055537	-0.769691	-0.327254	0.054116	-0.694818	-0.305689	0.033176	-0.700501	
628	3.1400	-0.397615	1.746948	-0.560710	-0.321649	1.747010	-0.783891	-0.324905	1.750607	-0.355096	-0.243200	1.705926	-0.564851	-0.232929	1.223149	-0.439331	-0.228126	1.221466	-0.668164	-0.298327	1.310338	-0.394805	-0.282903	1.301146	-0.714952	-0.409134	1.278913	-0.501323	-0.405026	1.279780	-0.611245	-0.413732	1.284120	-0.553872	-0.339261	0.995760	-0.353738	-0.329073	0.937972	-0.341264	-0.264727	0.947803	-0.337707	-0.267556	1.008104	-0.349699	-0.409874	0.524785	-0.334569	-0.417861	0.482941	-0.336354	-0.357745	0.478400	-0.327980	-0.353815	0.518344	-0.329697	-0.450863	0.206395	-0.392510	-0.324569	0.068738	-0.329372	-0.280971	0.071292	-0.402947	-0.260832	0.048826	-0.399325	-0.305677	0.973923	-0.759060	-0.294475	0.913671	-0.764537	-0.230548	0.919435	-0.757387	-0.232933	0.979272	-0.751192	-0.418071	0.479714	-0.760482	-0.427236	0.440446	-0.757167	-0.366254	0.431629	-0.768370	-0.365028	0.475481	-0.770429	-0.482110	0.211269	-0.709895	-0.372685	0.059688	-0.770141	-0.324943	0.057354	-0.695546	-0.303680	0.035346	-0.701337	
629	3.1450	-0.397951	1.752031	-0.560692	-0.321646	1.752812	-0.783344	-0.325649	1.756233	-0.355389	-0.243567	1.711282	-0.564606	-0.232425	1.228221	-0.439071	-0.227282	1.226566	-0.667808	-0.297644	1.315416	-0.394734	-0.282352	1.306178	-0.714781	-0.408509	1.284349	-0.501137	-0.404405	1.285055	-0.611144	-0.412957	1.289573	-0.553731	-0.339364	1.000977	-0.353964	-0.329482	0.943077	-0.341639	-0.265076	0.952553	-0.338098	-0.267516	1.012879	-0.350005	-0.409974	0.529050	-0.334537	-0.417458	0.487157	-0.336285	-0.357287	0.483121	-0.328112	-0.353728	0.523117	-0.329890	-0.449145	0.210242	-0.391944	-0.321415	0.074403	-0.327544	-0.277673	0.076626	-0.400913	-0.257299	0.054166	-0.397132	-0.305531	0.979012	-0.758644	-0.294657	0.918679	-0.763947	-0.230755	0.924099	-0.756469	-0.232814	0.983954	-0.750412	-0.417406	0.483983	-0.760318	-0.426189	0.444609	-0.757060	-0.365128	0.436378	-0.768310	-0.364322	0.480272	-0.770318	-0.479136	0.215671	-0.710738	-0.369772	0.064049	-0.770627	-0.322621	0.060899	-0.696177	-0.301510	0.038019	-0.702083	
630	3.1500	-0.398279	1.756827	-0.560662	-0.321674	1.758296	-0.782847	-0.326402	1.761529	-0.355611	-0.243874	1.716331	-0.564362	-0.232016	1.232998	-0.438814	-0.226542	1.231339	-0.667466	-0.297004	1.320178	-0.394632	-0.281840	1.310792	-0.714624	-0.407955	1.289439	-0.500964	-0.403841	1.289968	-0.611042	-0.412290	1.294653	-0.553602	-0.339476	1.005874	-0.354189	-0.329858	0.947912	-0.342023	-0.265409	0.957104	-0.338463	-0.267518	1.017439	-0.350291	-0.409866	0.533319	-0.334431	-0.416960	0.491384	-0.336062	-0.356733	0.487706	-0.328246	-0.353463	0.527750	-0.330054	-0.447648	0.213795	-0.391732	-0.318411	0.080075	-0.325705	-0.274309	0.082106	-0.398823	-0.253656	0.059822	-0.394893	-0.305418	0.983791	-0.758248	-0.294837	0.923390	-0.763388	-0.230964	0.928484	-0.755593	-0.232731	0.988368	-0.749662	-0.416606	0.488115	-0.760258	-0.425075	0.448652	-0.757059	-0.363921	0.440928	-0.768186	-0.363468	0.484850	-0.770152	-0.476578	0.219788	-0.711435	-0.366794	0.068560	-0.771146	-0.320256	0.064726	-0.696709	-0.299166	0.041214	-0.702692	
631	3.1550	-0.398595	1.761343	-0.560620	-0.321733	1.763460	-0.782402	-0.327141	1.766505	-0.355765	-0.244160	1.721081	-0.564127	-0.231695	1.237495	-0.438560	-0.225905	1.235793	-0.667147	-0.296467	1.324660	-0.394471	-0.281294	1.315027	-0.714430	-0.407468	1.294194	-0.500811	-0.403327	1.294536	-0.610943	-0.411733	1.299368	-0.553490	-0.339604	1.010484	-0.354396	-0.330188	0.952498	-0.342386	-0.265713	0.961464	-0.338798	-0.267583	1.021793	-0.350535	-0.409593	0.537573	-0.334269	-0.416414	0.495576	-0.335744	-0.356131	0.492158	-0.328380	-0.353075	0.532251	-0.330196	-0.446293	0.217104	-0.391856	-0.315594	0.085659	-0.323923	-0.270971	0.087585	-0.396703	-0.250018	0.065554	-0.392603	-0.305334	0.988267	-0.757881	-0.295002	0.927802	-0.762859	-0.231166	0.932607	-0.754757	-0.232675	0.992529	-0.748953	-0.415672	0.492123	-0.760285	-0.423897	0.452593	-0.757153	-0.362635	0.445284	-0.767998	-0.362466	0.489216	-0.769928	-0.474428	0.223601	-0.711981	-0.363764	0.073156	-0.771680	-0.317820	0.068780	-0.697140	-0.296645	0.044892	-0.703139	
632	3.1600	-0.398899	1.765581	-0.560567	-0.321805	1.768310	-0.782009	-0.327852	1.771168	-0.355853	-0.244428	1.725550	-0.563903	-0.231456	1.241724	-0.438313	-0.225372	1.239941	-0.666852	-0.296034	1.328873	-0.394264	-0.280731	1.318948	-0.714209	-0.407050	1.298621	-0.500680	-0.402859	1.298773	-0.610852	-0.411278	1.303737	-0.553399	-0.339755	1.014801	-0.354570	-0.330479	0.956828	-0.342723	-0.265987	0.965628	-0.339094	-0.267703	1.025957	-0.350739	-0.409203	0.541767	-0.334081	-0.415853	0.499707	-0.335403	-0.355526	0.496459	-0.328511	-0.352607	0.536580	-0.330337	-0.445025	0.220209	-0.392266	-0.313009	0.091070	-0.322260	-0.267741	0.092958	-0.394631	-0.246468	0.071184	-0.390320	-0.305268	0.992446	-0.757552	-0.295136	0.931928	-0.762367	-0.231346	0.936513	-0.753966	-0.232637	0.996460	-0.748296	-0.414613	0.496013	-0.760388	-0.422668	0.456428	-0.757328	-0.361282	0.449434	-0.767742	-0.361326	0.493376	-0.769658	-0.472655	0.227113	-0.712392	-0.360692	0.077787	-0.772226	-0.315295	0.073002	-0.697498	-0.293941	0.048939	-0.703457	
633	3.1650	-0.399186	1.769550	-0.560504	-0.321891	1.772852	-0.781670	-0.328476	1.775528	-0.355885	-0.244617	1.729768	-0.563676	-0.231297	1.245698	-0.438076	-0.224939	1.243799	-0.666581	-0.295708	1.332830	-0.394023	-0.280080	1.322546	-0.713953	-0.406709	1.302729	-0.500582	-0.402422	1.302722	-0.610782	-0.410919	1.307782	-0.553334	-0.339928	1.018863	-0.354689	-0.330726	0.960920	-0.342916	-0.266240	0.969608	-0.339337	-0.267880	1.029945	-0.350894	-0.408744	0.545870	-0.333855	-0.415306	0.503727	-0.335108	-0.354943	0.500584	-0.328646	-0.352112	0.540716	-0.330472	-0.443808	0.223113	-0.392890	-0.310683	0.096241	-0.320771	-0.264696	0.098143	-0.392670	-0.243092	0.076588	-0.388083	-0.305214	0.996335	-0.757264	-0.295222	0.935775	-0.761915	-0.231466	0.940217	-0.753255	-0.232615	1.000178	-0.747712	-0.413446	0.499781	-0.760543	-0.421403	0.460157	-0.757555	-0.359894	0.453379	-0.767425	-0.360074	0.497318	-0.769333	-0.471211	0.230334	-0.712679	-0.357612	0.082404	-0.772761	-0.312684	0.077309	-0.697819	-0.291084	0.053199	-0.703701	
634	3.1700	-0.399451	1.773258	-0.560428	-0.321987	1.777086	-0.781382	-0.329015	1.779591	-0.355868	-0.244765	1.733731	-0.563450	-0.231211	1.249429	-0.437852	-0.224582	1.247407	-0.666314	-0.295456	1.336538	-0.393805	-0.279332	1.325853	-0.713639	-0.406450	1.306534	-0.500514	-0.402018	1.306401	-0.610737	-0.410649	1.311527	-0.553296	-0.340155	1.022734	-0.354823	-0.330941	0.964762	-0.343027	-0.266463	0.973415	-0.339516	-0.268087	1.033748	-0.351008	-0.408261	0.549840	-0.333617	-0.414780	0.507557	-0.334922	-0.354401	0.504489	-0.328785	-0.351618	0.544626	-0.330609	-0.442613	0.225868	-0.393675	-0.308604	0.101126	-0.319520	-0.261870	0.103089	-0.390886	-0.239950	0.081728	-0.385971	-0.305159	0.999943	-0.757031	-0.295248	0.939351	-0.761510	-0.231522	0.943693	-0.752599	-0.232596	1.003694	-0.747199	-0.412203	0.503407	-0.760730	-0.420122	0.463760	-0.757805	-0.358494	0.457120	-0.767050	-0.358742	0.501045	-0.768960	-0.470026	0.233287	-0.712856	-0.354559	0.086961	-0.773255	-0.310013	0.081616	-0.698131	-0.288128	0.057541	-0.703940	
